<?xml version="1.0" standalone="no"?>
<!DOCTYPE svg PUBLIC "-//W3C//DTD SVG 20010904//EN"
 "http://www.w3.org/TR/2001/REC-SVG-20010904/DTD/svg10.dtd">
<svg version="1.0" xmlns="http://www.w3.org/2000/svg"
 width="1024.000000pt" height="1024.000000pt" viewBox="0 0 1024.000000 1024.000000"
 preserveAspectRatio="xMidYMid meet">

<g transform="translate(0.000000,1024.000000) scale(0.100000,-0.100000)"
fill="#000000" stroke="none">
<path d="M4585 8608 c-43 -25 -44 -33 -44 -288 l0 -245 33 -25 c59 -45 136
-142 176 -223 22 -44 40 -87 41 -96 0 -23 44 -113 51 -106 3 3 2 23 -3 43 -13
55 -11 121 7 230 19 123 37 183 70 240 43 73 94 122 163 157 90 44 159 63 269
71 l92 7 0 -125 c0 -153 -9 -204 -53 -300 -48 -102 -101 -147 -291 -243 -112
-56 -125 -71 -155 -180 -19 -66 -19 -70 0 -188 20 -121 18 -159 -7 -209 -21
-41 -43 -58 -74 -58 -51 0 -63 33 -55 143 l7 94 -50 50 c-53 53 -98 78 -174
99 l-48 12 0 -271 0 -272 61 -33 c154 -85 264 -234 326 -441 31 -106 43 -91
43 55 0 70 4 141 9 158 5 17 19 74 31 126 49 220 171 390 334 464 57 26 105
39 188 51 61 8 121 18 134 21 l24 6 0 599 c0 639 -1 653 -48 678 -30 16 -1030
15 -1057 -1z"/>
<path d="M4203 8173 c9 -2 23 -2 30 0 6 3 -1 5 -18 5 -16 0 -22 -2 -12 -5z"/>
<path d="M4002 8130 c0 -19 2 -27 5 -17 2 9 2 25 0 35 -3 9 -5 1 -5 -18z"/>
<path d="M6092 8108 c-83 -40 -142 -138 -127 -214 13 -74 93 -174 138 -174 16
0 17 -42 17 -509 0 -336 -4 -519 -11 -538 -13 -36 -190 -208 -240 -233 -27
-14 -58 -20 -109 -20 l-70 0 0 178 c-1 134 -3 172 -12 157 -23 -43 -96 -108
-153 -137 -69 -35 -139 -61 -245 -89 -101 -27 -172 -76 -205 -142 -31 -62 -31
-97 -1 -247 24 -118 24 -140 0 -140 -7 0 -16 -16 -19 -37 -4 -21 -11 -55 -16
-76 -9 -34 -12 -37 -37 -31 -36 9 -44 18 -10 12 24 -4 29 -1 37 26 6 17 11 47
13 66 l3 35 -50 0 c-42 0 -51 3 -53 20 -9 49 -192 153 -349 199 l-53 15 0
-203 0 -204 33 -6 c51 -10 166 -68 234 -120 130 -98 165 -151 240 -358 15 -43
31 -78 34 -78 8 0 14 26 24 105 4 28 13 66 21 85 8 19 22 65 30 103 26 115 81
232 138 296 11 13 65 59 118 101 94 76 169 115 246 127 l32 6 0 107 0 108 98
4 c76 3 106 9 142 27 45 24 252 223 286 276 18 27 19 60 24 569 4 431 8 540
18 544 23 7 95 66 116 95 16 22 21 43 20 90 -1 167 -160 274 -302 205z m128
-103 c31 -16 60 -61 60 -94 0 -25 -46 -80 -77 -92 -50 -19 -123 41 -123 101 0
32 18 59 53 80 39 24 49 24 87 5z m-1252 -2110 c0 -16 -2 -15 -8 5 -11 34 -11
60 0 35 5 -11 8 -29 8 -40z"/>
<path d="M4470 8116 c0 -3 9 -10 20 -16 11 -6 20 -8 20 -6 0 3 -9 10 -20 16
-11 6 -20 8 -20 6z"/>
<path d="M5089 7996 c-96 -106 -136 -183 -154 -295 -11 -64 5 -46 55 66 53
118 101 202 141 247 16 19 29 36 29 40 0 15 -19 0 -71 -58z"/>
<path d="M4012 8025 c0 -16 2 -22 5 -12 2 9 2 23 0 30 -3 6 -5 -1 -5 -18z"/>
<path d="M4275 7920 c-3 -4 12 -15 34 -23 99 -40 337 -272 467 -456 43 -60 49
-50 13 22 -78 155 -170 255 -336 367 -107 73 -169 104 -178 90z"/>
<path d="M4200 7626 c0 -2 8 -10 18 -17 15 -13 16 -12 3 4 -13 16 -21 21 -21
13z"/>
<path d="M3677 7357 c-56 -18 -102 -60 -132 -122 -23 -45 -26 -64 -22 -100 11
-79 67 -161 125 -182 l23 -9 2 -320 2 -321 27 -39 c15 -21 54 -68 86 -104 32
-36 64 -81 70 -100 8 -23 11 -122 9 -295 -2 -227 0 -266 16 -311 37 -106 91
-130 309 -139 127 -5 150 -4 138 7 -9 7 -28 34 -43 61 -15 26 -29 47 -30 48
-1 0 -51 4 -112 8 -164 13 -155 -6 -156 334 0 150 -2 283 -5 296 -10 52 -44
110 -102 173 -34 35 -66 77 -72 92 -6 17 -10 142 -10 319 l0 292 30 13 c83 37
134 184 96 275 -19 47 -100 115 -145 123 -20 3 -43 7 -51 9 -8 2 -32 -2 -53
-8z m112 -134 c17 -16 31 -35 32 -43 4 -38 -3 -61 -27 -89 -54 -65 -154 -22
-154 66 0 25 8 43 29 64 38 38 80 39 120 2z"/>
<path d="M5823 7285 c0 -33 2 -45 4 -27 2 18 2 45 0 60 -2 15 -4 0 -4 -33z"/>
<path d="M4816 7216 c-11 -39 -6 -92 10 -114 18 -26 65 -27 71 -2 4 13 3 13
-6 0 -8 -11 -11 -12 -11 -2 0 8 8 16 19 19 33 8 59 102 29 104 -7 0 -34 4 -60
8 -42 7 -47 6 -52 -13z"/>
<path d="M6585 7219 c-115 -59 -153 -175 -96 -287 24 -47 61 -81 97 -91 l29
-7 3 -350 c1 -192 0 -364 -3 -382 -5 -27 -55 -84 -243 -278 -139 -144 -247
-264 -262 -292 -24 -44 -25 -56 -30 -264 l-5 -217 -35 -36 c-43 -44 -81 -55
-195 -55 -50 0 -105 -4 -123 -9 l-33 -10 3 238 3 237 -53 -37 c-61 -43 -158
-74 -254 -82 -75 -7 -111 -22 -149 -64 -40 -42 -55 -79 -69 -170 -11 -64 -11
-100 -2 -165 17 -120 26 -295 16 -301 -5 -3 -9 20 -9 51 l0 57 -60 2 c-33 0
-65 -3 -71 -8 -7 -6 -9 18 -7 78 4 77 2 88 -18 109 -12 13 -54 35 -93 50 -134
51 -341 137 -363 152 l-23 14 0 -177 0 -176 -80 84 c-118 125 -153 136 -465
136 l-150 1 -199 202 c-109 112 -228 239 -263 283 -56 68 -64 83 -59 108 3 16
6 107 6 201 l0 172 33 9 c26 8 38 23 70 83 54 107 47 168 -31 254 -45 50 -85
68 -149 68 -143 -1 -234 -129 -191 -271 14 -48 67 -112 107 -128 l29 -13 4
-221 c3 -196 5 -227 22 -261 33 -66 530 -579 583 -602 24 -10 85 -14 237 -14
120 0 216 -4 233 -11 15 -5 79 -63 143 -127 l115 -117 3 -120 c2 -66 8 -126
14 -132 14 -17 1058 -19 1089 -3 43 24 49 56 49 289 l0 219 163 4 c184 4 213
13 280 87 66 73 70 92 71 321 1 201 2 206 25 240 14 19 127 139 252 265 210
213 228 234 243 284 13 46 16 114 16 421 l0 366 44 36 c120 101 114 269 -12
349 -57 36 -127 39 -187 8z m149 -130 c30 -35 32 -58 11 -99 -48 -92 -185 -43
-160 57 18 76 101 99 149 42z m-3444 -864 c37 -19 53 -49 52 -94 -3 -78 -86
-108 -143 -52 -56 57 -25 143 59 160 2 1 16 -6 32 -14z m1806 -1610 c18 -14
39 -25 46 -26 9 0 9 -2 1 -5 -10 -5 -93 42 -93 52 0 9 16 2 46 -21z"/>
<path d="M5801 7084 c0 -11 3 -14 6 -6 3 7 2 16 -1 19 -3 4 -6 -2 -5 -13z"/>
<path d="M5440 6986 c-168 -112 -234 -185 -324 -364 -32 -63 -70 -181 -61
-190 2 -2 24 38 49 89 99 198 259 395 393 481 35 22 63 42 63 44 0 14 -38 -5
-120 -60z"/>
<path d="M4178 6973 c18 -2 45 -2 60 0 15 2 0 4 -33 4 -33 0 -45 -2 -27 -4z"/>
<path d="M4161 6704 c0 -11 3 -14 6 -6 3 7 2 16 -1 19 -3 4 -6 -2 -5 -13z"/>
<path d="M4430 6663 c1 -5 14 -17 30 -28 161 -111 319 -276 454 -477 16 -24
31 -37 33 -31 3 7 -18 45 -44 85 -27 40 -60 94 -73 120 -27 56 -174 217 -216
237 -16 8 -61 34 -100 58 -72 44 -84 49 -84 36z"/>
<path d="M4395 6310 c10 -11 20 -20 23 -20 3 0 -3 9 -13 20 -10 11 -20 20 -23
20 -3 0 3 -9 13 -20z"/>
<path d="M4450 6276 c0 -3 9 -10 20 -16 11 -6 20 -8 20 -6 0 3 -9 10 -20 16
-11 6 -20 8 -20 6z"/>
<path d="M5788 6083 c39 -2 105 -2 145 0 39 1 7 3 -73 3 -80 0 -112 -2 -72 -3z"/>
<path d="M5971 5864 c0 -11 3 -14 6 -6 3 7 2 16 -1 19 -3 4 -6 -2 -5 -13z"/>
<path d="M4182 5840 c0 -14 2 -19 5 -12 2 6 2 18 0 25 -3 6 -5 1 -5 -13z"/>
<path d="M4182 5790 c0 -14 2 -19 5 -12 2 6 2 18 0 25 -3 6 -5 1 -5 -13z"/>
<path d="M5564 5734 c-60 -36 -120 -75 -133 -87 -65 -61 -199 -243 -240 -327
l-22 -45 41 45 c23 25 83 97 135 160 89 110 225 239 296 282 41 25 44 27 37
33 -2 3 -54 -25 -114 -61z"/>
<path d="M4520 5571 c0 -6 10 -16 23 -22 86 -46 333 -311 384 -414 51 -100 64
-119 74 -103 6 9 11 4 18 -16 11 -27 34 -56 46 -56 8 0 -118 245 -156 303 -52
78 -389 345 -389 308z"/>
<path d="M5839 5553 c-13 -16 -12 -17 4 -4 9 7 17 15 17 17 0 8 -8 3 -21 -13z"/>
<path d="M5779 5483 l-24 -28 28 24 c25 23 32 31 24 31 -2 0 -14 -12 -28 -27z"/>
<path d="M4415 5210 c21 -22 41 -40 44 -40 3 0 -13 18 -34 40 -21 22 -41 40
-44 40 -3 0 13 -18 34 -40z"/>
<path d="M4500 5136 c0 -2 8 -10 18 -17 15 -13 16 -12 3 4 -13 16 -21 21 -21
13z"/>
<path d="M4200 3970 c-90 -28 -148 -60 -206 -113 -92 -83 -134 -196 -134 -353
0 -181 41 -298 136 -389 94 -92 212 -135 367 -135 149 0 260 41 343 125 94 97
134 200 134 348 l0 87 -235 0 -235 0 0 -93 0 -93 130 4 c72 3 130 0 130 -4 0
-22 -62 -114 -90 -134 -39 -28 -120 -50 -186 -50 -138 0 -240 86 -279 236 -20
77 -19 109 6 189 28 93 99 166 183 190 113 33 228 1 291 -82 18 -24 35 -49 37
-54 2 -7 101 21 196 56 19 7 -30 94 -88 154 -51 53 -114 89 -200 115 -72 22
-226 20 -300 -4z"/>
<path d="M2410 3485 l0 -488 228 5 c214 5 231 6 307 32 99 34 160 72 212 134
79 93 116 195 116 317 0 134 -37 226 -134 329 -102 110 -197 142 -429 145 -80
1 -180 4 -222 7 l-78 7 0 -488z m494 271 c66 -28 103 -63 135 -127 74 -148 18
-345 -115 -406 -59 -27 -155 -40 -251 -35 l-63 4 0 295 0 296 128 -5 c87 -4
139 -10 166 -22z"/>
<path d="M3458 3495 l-3 -475 103 0 102 0 0 475 0 475 -100 0 -100 0 -2 -475z"/>
<path d="M5020 3495 l0 -475 103 0 102 0 -3 475 -2 475 -100 0 -100 0 0 -475z"/>
<path d="M5385 3913 c4 -32 10 -76 14 -98 l7 -40 137 -3 137 -3 0 -384 0 -385
100 0 100 0 0 385 0 385 134 0 134 0 7 68 c3 37 8 78 10 92 l4 26 -327 -1
c-180 0 -358 4 -395 8 l-69 8 7 -58z"/>
<path d="M6473 3958 c-6 -7 -19 -42 -31 -78 -11 -36 -86 -242 -166 -459 -80
-217 -146 -398 -146 -402 0 -5 49 -8 109 -8 l109 0 33 100 34 99 190 -2 190
-3 35 -100 35 -100 113 -3 c61 -1 112 1 112 4 0 4 -52 139 -115 300 -165 420
-222 574 -230 617 l-7 37 -107 0 c-58 0 -115 3 -127 6 -11 3 -25 -1 -31 -8z
m190 -385 c32 -93 57 -171 57 -175 0 -5 -54 -8 -120 -8 -66 0 -120 3 -120 8 0
14 115 342 120 342 3 0 32 -75 63 -167z"/>
<path d="M7230 3488 l1 -481 151 6 c83 4 220 7 305 7 l153 0 0 90 0 91 -202
-1 -203 -2 -3 386 -2 386 -100 0 -100 0 0 -482z"/>
<path d="M7650 2711 c-116 -37 -178 -81 -247 -174 -59 -81 -84 -165 -84 -292
-1 -141 15 -204 75 -295 51 -79 156 -159 251 -191 58 -20 236 -18 306 4 122
37 233 142 279 263 13 36 23 93 27 160 l6 104 -230 0 c-126 0 -232 -2 -234 -4
-2 -2 -3 -43 -1 -90 l3 -86 125 0 c78 0 124 -4 124 -10 0 -19 -48 -86 -80
-114 -66 -55 -164 -74 -256 -48 -76 22 -149 96 -180 184 -19 54 -18 171 2 238
20 67 99 150 160 168 53 15 135 15 187 0 40 -12 108 -69 137 -116 l15 -23 98
31 97 31 -26 47 c-59 103 -160 183 -272 214 -84 23 -207 22 -282 -1z"/>
<path d="M3014 2695 c-37 -120 -94 -279 -189 -535 -64 -173 -123 -332 -131
-352 l-13 -38 108 0 109 0 35 98 35 97 183 0 184 0 35 -97 35 -97 110 -3 c60
-2 111 -2 113 -2 1 1 -26 75 -62 165 -95 242 -283 731 -290 755 -6 19 -13 20
-132 20 -75 -1 -128 -5 -130 -11z m194 -357 c28 -79 53 -154 57 -168 l6 -25
-120 3 -120 3 14 42 c38 121 99 287 105 287 4 0 30 -64 58 -142z"/>
<path d="M5910 2238 l0 -468 100 0 100 0 0 464 0 465 -100 3 -100 3 0 -467z"/>
<path d="M2030 2225 l0 -476 96 3 96 3 2 184 1 185 198 -3 197 -3 0 91 0 91
-172 2 c-95 1 -184 2 -198 3 l-25 1 0 107 0 107 225 2 225 3 3 88 3 87 -326 0
-325 0 0 -475z"/>
<path d="M3750 2231 l0 -471 95 0 95 0 0 160 0 160 80 0 79 0 83 -136 c122
-201 103 -185 230 -182 l107 3 -109 175 -109 175 36 20 c58 32 120 93 144 141
17 37 20 58 18 128 -4 71 -8 89 -34 131 -37 60 -96 106 -172 135 -52 20 -82
23 -300 28 l-243 5 0 -472z m456 280 c85 -39 110 -119 57 -182 -41 -49 -77
-59 -208 -59 l-115 0 0 130 0 130 113 0 c87 0 121 -5 153 -19z"/>
<path d="M4680 2230 l0 -470 95 0 95 0 0 322 c0 182 4 318 9 313 4 -6 36 -62
69 -125 33 -63 83 -155 110 -205 l50 -90 58 -3 c32 -2 68 -1 80 2 16 4 49 58
130 211 l109 204 6 -287 c3 -158 7 -299 8 -314 l1 -28 95 0 95 0 0 470 0 471
-127 -3 -127 -3 -69 -130 c-174 -330 -178 -338 -192 -324 -7 8 -66 114 -130
237 l-117 222 -124 0 -124 0 0 -470z"/>
<path d="M6330 2231 l0 -470 101 0 100 -1 -3 305 c-2 168 0 305 3 305 3 0 64
-84 134 -187 171 -250 263 -379 278 -391 7 -6 56 -12 110 -14 l97 -3 0 463 0
462 -100 0 -101 0 3 -305 c2 -167 -1 -300 -5 -296 -5 5 -97 141 -205 302
l-197 294 -107 3 -108 3 0 -470z"/>
</g>
</svg>
